PathFileType	4	(X/Y/Z)	D:\TRACE\spotREDO_2-26-24\spot_justArm_Motion_1_5-v60.trc
DataRate	CameraRate	NumFrames	NumMarkers	Units	OrigDataRate	OrigDataStartFrame	OrigNumFrames
100.00	100.00	      24	9	mm	100.00	2626	      7000
Frame#	Time	front left toe			Front right toe			aft left toe			aft right toe			Arm			FL body			FR body			AL Body			AR Body			
		X1	Y1	Z1	X2	Y2	Z2	X3	Y3	Z3	X4	Y4	Z4	X5	Y5	Z5	X6	Y6	Z6	X7	Y7	Z7	X8	Y8	Z8	X9	Y9	Z9	

2626	26.250	-277.31403	13.91827	-165.20152	150.86427	13.10713	-142.75153	-299.01358	36.46417	456.71576	118.67866	36.87635	414.98740	-59.87738	719.81238	-769.09894	-119.76176	540.14008	-227.47023	36.11213	544.98602	-222.83965	-155.23952	575.90076	655.21613	-7.41726	576.63617	661.60321	
2627	26.260	-277.66077	14.07447	-164.97275	150.52310	13.41703	-142.67798	-299.41699	36.47734	456.68707	118.21257	36.99326	414.81866	-60.36513	719.54309	-769.15564	-120.90794	539.89679	-227.55832	34.97712	544.69421	-222.95021	-156.25174	576.24146	654.82715	-8.28378	576.80194	661.42767	
2628	26.270	-277.99985	14.01710	-164.92477	150.25183	13.24457	-142.91869	-299.69318	36.30525	456.51334	117.88358	37.13892	414.73572	-61.17455	719.35095	-769.19592	-122.06750	539.61102	-227.59099	34.03818	544.52924	-223.03262	-157.03322	576.30560	655.02075	-8.93427	576.88422	661.25012	
2629	26.280	-278.17877	13.59191	-165.12811	150.02274	13.33461	-142.97630	-299.78424	36.20614	456.52243	117.54897	37.17702	414.76913	-61.87553	719.10974	-769.19006	-123.13369	539.63269	-227.72012	32.96765	544.32813	-223.30515	-157.35921	576.62830	655.14246	-9.76813	577.00800	661.06854	
2630	26.290	-278.50992	13.46250	-165.08566	149.65663	13.45055	-143.12633	-299.95752	36.22783	456.57907	117.15578	37.27687	414.77716	-62.60765	718.94360	-769.34338	-124.05190	539.63092	-227.85580	31.94799	544.11646	-223.35991	-158.50488	576.89740	654.73663	-10.64422	577.27643	660.88470	
2631	26.300	-278.81726	13.38970	-165.13326	149.34117	13.50038	-143.16931	-300.16980	36.46027	456.66992	116.90083	37.39867	414.69138	-63.04775	718.83386	-769.39209	-125.27229	539.32324	-227.80934	30.94124	543.81757	-223.40096	-158.90291	577.31195	654.94135	-11.30322	577.62512	660.76367	
2632	26.310	-279.03171	13.26696	-165.12323	149.23326	13.56106	-143.19353	-300.40634	36.39619	456.57043	116.79663	37.46081	414.64163	-63.63385	718.68512	-769.49762	-126.20229	539.08301	-227.84192	29.90579	543.65088	-223.64851	-159.89177	577.58722	654.77979	-11.85178	577.99060	660.74402	
2633	26.320	-279.24991	13.13324	-165.06055	149.04657	13.53363	-143.30431	-300.51514	36.56176	456.70132	116.58319	37.48686	414.51102	-63.88394	718.49902	-769.34003	-127.00992	538.92621	-228.14877	29.28229	543.37689	-223.64590	-160.50899	577.80383	654.73248	-12.59877	578.26819	660.71582	
2634	26.330	-279.38519	13.10177	-164.99567	148.90013	13.50671	-143.34714	-300.65320	36.56566	456.66153	116.45408	37.49340	414.48401	-64.33422	718.41943	-769.53223	-128.04387	538.68945	-228.04514	28.22470	543.13013	-223.75851	-161.16901	578.19110	654.62476	-13.44792	578.48163	660.58228	
2635	26.340	-279.45465	13.01333	-164.99815	148.80692	13.60900	-143.33780	-300.76712	36.51787	456.64764	116.37390	37.55902	414.42822	-64.73566	718.33551	-769.58087	-128.99652	538.54456	-228.05095	27.47057	542.95068	-223.94531	-161.76585	578.38641	654.60992	-14.15635	578.63000	660.48193	
2636	26.350	-279.55771	12.97515	-165.03926	148.80052	13.66026	-143.36726	-300.91449	36.59312	456.52267	116.31455	37.67950	414.38770	-65.12217	718.36853	-769.62848	-129.68465	538.45233	-228.18332	26.30616	542.81622	-224.03618	-162.61116	578.73669	654.53290	-15.01353	578.92346	660.40576	
2637	26.360	-279.63492	12.95361	-165.07178	148.89470	13.73660	-143.28931	-301.06403	36.64695	456.46219	116.28283	37.86042	414.28363	-65.61786	718.45178	-769.63989	-130.46857	538.17572	-228.32281	26.15629	542.49103	-223.58006	-163.90431	578.92419	654.06494	-15.80907	579.29559	660.25092	
2638	26.370	-279.63626	12.91992	-165.09424	148.72778	13.67500	-143.44058	-301.14481	36.65006	456.47690	116.26627	37.99859	414.28497	-65.84440	718.40784	-769.69916	-131.20200	538.04596	-228.40613	25.23336	542.39764	-223.61154	-164.11420	579.12927	654.37360	-16.57286	579.47351	660.15924	
2639	26.380	-279.64069	12.85385	-165.09091	148.75420	13.72141	-143.45538	-301.12277	36.57586	456.44092	116.24336	38.03778	414.28162	-66.10450	718.44574	-769.72021	-132.03069	537.98322	-228.33653	24.61465	542.37488	-223.57898	-164.91168	579.31036	654.29877	-17.23334	579.68506	660.12140	
2640	26.390	-279.63593	12.75999	-165.07341	148.72855	13.81057	-143.47812	-301.19907	36.48724	456.51553	116.20591	38.14647	414.27341	-66.26826	718.51263	-769.60724	-132.31537	537.71716	-228.17871	23.97479	542.50232	-224.03392	-165.90427	579.35248	653.95374	-18.06230	579.93091	659.93213	
2641	26.400	-279.65729	12.73150	-165.09016	148.65167	13.83202	-143.48822	-301.22952	36.44014	456.50702	116.14983	38.22091	414.21365	-66.71653	718.50763	-769.82678	-132.99165	538.02155	-228.29015	23.47911	542.65125	-224.03946	-166.23441	579.42865	654.21136	-18.77081	579.84760	659.97900	
2642	26.410	-279.67160	12.76315	-165.09583	148.68570	13.90770	-143.51454	-301.26636	36.42434	456.51346	116.11818	38.34777	414.20636	-67.13731	718.48517	-770.33478	-133.44740	538.35181	-228.36104	22.08108	543.00006	-224.04691	-167.15265	579.37946	654.33685	-19.38221	579.63965	660.26050	
2643	26.420	-279.63312	12.81466	-165.10835	148.67529	13.95554	-143.47391	-301.33395	36.37773	456.54446	116.03750	38.39925	414.24286	-68.22282	718.45618	-771.54504	-133.80360	539.03430	-228.31549	21.99230	543.35492	-223.90991	-168.03368	579.20270	654.38263	-20.12034	579.43329	660.40686	
2644	26.430	-279.55060	12.85577	-165.12341	148.76326	13.96170	-143.43291	-301.38589	36.28204	456.59863	116.10248	38.55829	414.32950	-69.74915	718.45306	-773.71356	-133.75972	539.84790	-228.06364	22.43553	543.82776	-223.43791	-168.59949	579.17371	654.66193	-20.96553	579.20557	660.70184	
2645	26.440	-279.36310	12.95850	-165.11951	148.76923	13.81208	-143.43262	-301.55093	36.24835	456.59439	116.07128	38.70715	414.42108	-71.89271	718.01849	-776.49200	-133.70691	540.58893	-227.83400	22.24397	544.56946	-223.12117	-169.47665	579.12640	654.84857	-21.96007	578.89740	661.17871	
2646	26.450	-279.08276	13.06438	-165.21071	148.84663	13.72653	-143.35602	-301.47223	36.16786	456.54172	115.71429	38.74716	414.41171	-74.66472	717.10724	-780.18597	-133.28897	541.29144	-227.35892	22.54031	545.10101	-222.39343	-170.56566	579.15625	654.98126	-22.86952	578.70496	661.62616	
2647	26.460	-278.86798	13.20298	-165.40114	148.91800	13.62393	-143.31812	-301.43695	36.22282	456.50906	116.29951	39.04947	414.54422	-78.21034	715.98523	-784.67065	-132.98605	542.29578	-227.19048	22.83302	545.50641	-221.67535	-171.66214	579.03339	655.14233	-23.31351	578.51978	662.48199	
2648	26.470	-278.57639	13.30908	-165.77982	149.19315	13.64727	-143.18480	-301.26749	36.12978	456.50189	116.36681	39.19458	414.59058	-82.55883	714.17963	-789.48743	-132.38309	542.86646	-226.88284	23.40707	546.10590	-221.36078	-172.28171	578.76581	655.55273	-24.52004	578.34375	662.79681	
2649	26.480	-278.28552	13.28928	-165.65543	149.65149	13.55434	-143.16626	-301.07898	36.11737	456.45282	116.44042	39.29307	414.67599	-87.06714	711.87781	-794.15033	-132.02141	543.57623	-226.61966	24.03745	546.49994	-220.76736	-173.18967	578.93390	655.46381	-25.11528	578.51825	663.12439	
